<?xml version="1.0" encoding="utf-8" ?>
<svg baseProfile="tiny" height="585" version="1.2" width="1024" xmlns="http://www.w3.org/2000/svg" xmlns:ev="http://www.w3.org/2001/xml-events" xmlns:xlink="http://www.w3.org/1999/xlink"><defs /><path d="M 0,0 L 0,209 L 2,209 L 3,210 L 3,240 L 2,241 L 1,241 L 0,240 L 0,302 L 4,306 L 4,307 L 6,309 L 6,310 L 7,311 L 7,313 L 8,314 L 8,316 L 9,317 L 9,319 L 10,320 L 10,328 L 11,329 L 11,335 L 10,336 L 10,343 L 9,344 L 9,347 L 8,348 L 8,349 L 7,350 L 7,352 L 6,353 L 6,354 L 4,356 L 4,357 L 2,359 L 2,360 L 0,362 L 0,584 L 1023,584 L 1023,0 Z" fill="black" /></svg>